<?xml version="1.0" standalone="no"?>
<!DOCTYPE svg PUBLIC "-//W3C//DTD SVG 20010904//EN"
 "http://www.w3.org/TR/2001/REC-SVG-20010904/DTD/svg10.dtd">
<svg version="1.0" xmlns="http://www.w3.org/2000/svg"
 width="300.000000pt" height="300.000000pt" viewBox="0 0 300.000000 300.000000"
 preserveAspectRatio="xMidYMid meet">
<metadata>
Created by potrace 1.14, written by Peter Selinger 2001-2017
</metadata>
<g transform="translate(0.000000,300.000000) scale(0.100000,-0.100000)"
fill="#000000" stroke="none">
<path d="M1000 2885 c0 -2 15 -28 33 -57 47 -75 127 -258 112 -258 -1 0 3 -21
11 -47 20 -66 20 -241 -1 -328 -42 -184 -104 -299 -279 -524 -178 -228 -224
-303 -252 -413 -47 -184 58 -402 237 -490 97 -47 171 -61 299 -55 214 9 348
74 494 237 67 75 136 165 136 178 0 5 -30 0 -67 -11 -48 -14 -100 -20 -178
-21 -100 -1 -115 1 -168 26 -110 52 -169 151 -168 283 1 122 38 228 146 415
78 135 107 196 139 300 76 240 5 466 -193 613 -31 23 -108 68 -171 99 -110 56
-130 64 -130 53z"/>
<path d="M1770 1712 c-20 -10 -52 -42 -76 -77 -43 -62 -184 -305 -184 -317 0
-7 47 -1 62 8 5 3 45 5 89 5 116 -1 172 -28 269 -130 104 -110 123 -114 348
-75 46 7 88 16 93 20 32 19 -30 194 -112 313 -73 106 -181 190 -312 242 -84
33 -128 36 -177 11z"/>
<path d="M2049 724 c-26 -8 -59 -28 -77 -46 -17 -18 -46 -49 -64 -69 -129
-139 -376 -140 -504 -2 -22 23 -26 24 -54 13 -16 -7 -30 -14 -30 -15 0 -2 9
-34 21 -71 51 -166 157 -302 294 -380 61 -34 79 -39 140 -41 82 -2 173 21 272
68 137 65 265 229 324 417 28 89 25 94 -81 112 -41 7 -84 14 -95 16 -56 11
-105 10 -146 -2z"/>
</g>
</svg>
